<?xml version="1.0" encoding="UTF-8"?>
<svg xmlns="http://www.w3.org/2000/svg" version="1.1" viewBox="0 0 345.43 383.14">
  <defs>
    <style>
      .cls-1 {
        fill: #231f20;
      }

      .cls-2 {
        fill: #010101;
      }
    </style>
  </defs>
  <!-- Generator: Adobe Illustrator 28.7.3, SVG Export Plug-In . SVG Version: 1.2.0 Build 164)  -->
  <g>
    <g id="Layer_1">
      <g>
        <path class="cls-1" d="M47.26,183.81c0-79.69,53.63-135.2,125.38-135.2,59.67,0,101.21,46.07,101.21,69.87,0,6.8-4.53,11.33-11.71,11.33-22.66,0-19.64-69.11-96.3-69.11-50.98,0-95.92,46.07-95.92,111.79,0,77.42,52.49,131.8,111.03,131.8,48.72,0,75.91-37.77,88-69.87,3.4-7.18,13.97-6.42,11.7,3.78-10.95,42.3-45.32,86.11-106.87,86.11-64.58,0-126.52-62.69-126.52-140.49Z"/>
        <path class="cls-2" d="M172.75,194.8c.64-.43,1.3-.99,1.47-1.24.17-.25.45-.36.63-.25.18.12.33-.03.34-.34.02-.4.27-.5.9-.36.7.16.88.05.9-.53.02-.58.2-.68.9-.52.68.16.88.06.9-.46.02-.55.19-.61.98-.38.86.25.91.22.5-.33-.41-.54-.36-.6.44-.57.5.02,1.02-.13,1.16-.34.14-.22.69-.27,1.26-.14.59.14,1.01.09,1.02-.12,0-.21.32-.26.71-.12.4.14.7.09.71-.12,0-.21.21-.37.46-.36.24,0,.64-.28.89-.64.31-.45.69-.59,1.21-.43.49.15.69.1.55-.15-.13-.24.35-.46,1.27-.58,1-.13,1.53-.06,1.61.21.19.67.71.47.55-.22-.12-.55.04-.61,1.11-.45.69.11,1.15.34,1.04.51-.12.17-.38.2-.59.06-.24-.16-.31-.04-.18.34.11.33.06.59-.11.58s-.37-.21-.45-.46c-.08-.25-.16-.02-.18.51-.04.8.06.91.59.65.35-.17.73-.55.86-.84.26-.61,1.36-.69,1.2-.09-.06.24.38.41,1.13.44,2.49.08,2.46.1,2.3-1.15-.12-.94-.08-1.04.22-.52.43.73,1.73.9,1.76.23,0-.25.41-.44.9-.42.48.02.87.16.87.32,0,.15-.33.27-.71.25-.39-.02-.71.11-.72.29-.02.44.96.81,1.2.46.11-.16.74-.37,1.41-.47.67-.1,1.29-.37,1.38-.6.12-.32.3-.3.74.09q.63.56,1.24-.44c.37-.6.42-.61.41-.07-.02.85.71.81.97-.05.12-.38.47-.68.79-.67.44.02.46.09.11.3-.37.22-.36.37.06.75.44.4.53.37.56-.19.02-.49.1-.53.31-.19.28.49,3.25.99,4.32.72.33-.08.54-.35.45-.6-.17-.49-1.44-.7-5.3-.87-1.4-.06-2.46-.23-2.37-.37.3-.44-2.14-.64-2.57-.22-.23.22-.74.31-1.15.18-.56-.17-.62-.29-.26-.5.26-.15.32-.29.11-.3-.2-.01-.57.17-.82.4-.29.27-.54.29-.69.06-.13-.2-.46-.42-.73-.49-.4-.1-.42-.02-.08.42.35.45.3.53-.3.46-.4-.05-.79-.29-.88-.54-.21-.62-3.34-.75-3.37-.14-.01.29-.11.31-.27.06-.15-.23-1.7-.43-3.85-.5-2.09-.07-3.67-.27-3.74-.48-.09-.24-.24-.24-.44-.02-.3.34-9.28.16-9.27-.19,0-.1-.75-.22-1.66-.27-2.15-.12-3.1-.35-4.79-1.17-2.03-.97-3.44-2.67-3.26-3.92.08-.56-.02-1.02-.22-1.03-.2,0-.26-.25-.14-.55s-.02-.83-.32-1.19c-.3-.36-.45-.74-.33-.85.12-.11-.11-.55-.5-.97-.42-.45-.6-.95-.43-1.19.49-.72.53-1.41.16-3.24-.19-.98-.31-1.91-.26-2.07.05-.16-.08-.53-.29-.8-.21-.28-.27-.5-.13-.5.14,0,.07-.23-.16-.53-.23-.3-.28-.54-.11-.54.17,0,.08-.16-.21-.36-.34-.24-.37-.36-.07-.35.68.02.58-1.55-.16-2.47-.48-.6-.57-.99-.31-1.42.46-.78.33-2.46-.22-2.83-.33-.22-.33-.35,0-.53.27-.15.35-.6.22-1.18-.11-.52-.23-1.5-.27-2.18-.13-2.28-.44-4.42-.69-4.79-.14-.2-.25-.76-.25-1.24,0-1.37-.1-4.74-.15-4.99-.02-.12-.36-.32-.74-.44-.69-.21-.96-1.35-.32-1.32.5.02.75.65.33.84-.2.09-.17.13.08.09.25-.04.52-.51.61-1.04.11-.68.03-.9-.28-.73-.32.18-.36-.31-.13-2,.25-1.86.19-2.44-.35-3.42-.67-1.2-.9-2.12-.28-1.14.26.41.32.24.29-.67-.03-.66-.27-1.29-.53-1.39-.27-.1-.39-.02-.27.19.11.2,0,.44-.25.53-.49.17-.71,3.99-.31,5.44.11.41.07.82-.1.91-.45.25-.62,2.59-.21,2.86.19.13.36.04.37-.19,0-.24.11-.33.22-.21.11.12-.05.56-.37.97-.5.66-.51.82-.08,1.29.32.34.4.81.22,1.28-.15.41-.3,1.06-.34,1.45-.03.39-.17.86-.31,1.06-.14.2-.13.57.01.83.15.26.18.77.07,1.13-.12.41-.02.67.28.68.38.02.36.1-.06.38-.42.27-.44.4-.09.55.34.15.35.31.02.67-.24.27-.32.74-.18,1.1.36.91.36,1.22,0,2.37-.21.68-.18,1.12.08,1.3.28.19.29.41.02.72-.22.27-.44,2.46-.51,5.38-.07,2.71-.28,5.11-.45,5.32-.18.22-.29.53-.26.69.03.17-.07.85-.23,1.53-.16.67-.39,2.01-.51,2.98-.12.96-.29,1.99-.38,2.28-.09.29-.3,1.11-.48,1.83-.18.72-.48,1.3-.67,1.3-.19,0-.27.23-.17.52.1.29.01.53-.2.52-.23,0-.31.36-.19.96.13.66.09.81-.12.47-.25-.42-.48-.39-1.34.18-1.14.75-2.45,2.58-2.11,2.95.12.13.01.23-.23.22-.26,0-.35-.24-.22-.55.19-.44.1-.47-.57-.15-.44.21-1.09.61-1.44.89-.35.28-.63.38-.63.22,0-.16-.45.11-1.01.61-.56.5-1.49.94-2.07.99-.97.08-3.77.65-7.09,1.45-1.64.39-1.37.34-3.19.63-.78.12-1.56.31-1.73.4-.17.1-.97.19-1.77.2-1.86.03-2.49.17-3.21.73-.32.24-.91.34-1.31.22-.94-.29-5.66.75-6.05,1.33-.23.34-.35.3-.51-.18-.2-.6-.25-.6-.96-.03-.41.33-.62.41-.47.17.18-.28.04-.44-.43-.46-.39-.02-.8.25-.92.58-.12.33-.61.77-1.09.97-.75.31-.89.26-1.05-.39-.18-.74-.19-.73-.73.11-.3.47-.54.7-.54.51,0-.19-.73-.42-1.62-.51-1.22-.12-1.58-.04-1.46.31.09.28-.11.48-.52.49-.37.01-.58-.12-.46-.3.12-.18-.14-.34-.57-.35-.76-.03-.77-.01-.16.61.59.6,2.26.96,2.27.49,0-.12.4-.12.88-.01.48.11.87.33.86.49,0,.16.43.08.96-.17.54-.25,1.05-.34,1.15-.2.24.35,4.22.61,4.23.28,0-.14.96-.15,2.12-.02,1.76.2,2.11.14,2.13-.33.02-.46.19-.49.93-.17.64.27,1.06.27,1.41,0,.38-.29.5-.28.48.04-.02.49,2.21.22,2.43-.3.08-.19.29-.18.53.03.52.46,2.38.71,2.95.39.25-.14.45-.12.44.05s3.59.46,7.99.66c4.4.2,8.4.45,8.89.56,1.77.41,3.82,1.22,3.81,1.51,0,.16.23.31.52.32.3.01.66.39.81.84.15.45.5,1.02.77,1.26.27.24.74,1.4,1.05,2.57.31,1.17.69,2.05.86,1.96.17-.1.29.15.28.55-.02.4.13.73.32.74.19,0,.36-.17.37-.4,0-.23.1-.32.21-.2.11.12-.08.6-.41,1.07-.38.54-.48.94-.26,1.09.19.13.25.46.13.74-.15.35.02.52.52.54.85.03.97.67.18.94-.74.25-.72,1.45.07,3.06.36.75.56,1.51.44,1.69-.12.18-.04.33.19.34.23,0,.31.26.17.57-.13.3-.13.73,0,.95.4.71.35,2.02-.08,2.02-.26,0-.23.16.09.44.32.28.51,1.12.49,2.21-.03,2.97.27,7.03.56,7.6.23.44.29.41.33-.16.04-.57.1-.6.33-.16.16.3.13,1.33-.06,2.29-.19.96-.28,1.87-.19,2.02.38.69.37,2.15-.02,2.58-.24.26-.28.48-.09.49.34.01.44,1.97.36,6.47-.03,1.67.11,2.5.45,2.73.32.22.59.18.77-.12.28-.45.64-7.4.71-13.49.02-1.79.16-3.25.31-3.25.15,0,.28-.23.29-.52.01-.29-.14-.53-.34-.54-.24,0-.24-.22,0-.64.22-.38.25-.82.06-1.14-.41-.71-.32-2.37.14-2.63.26-.15.26-.37,0-.71-.21-.27-.26-.68-.1-.91.5-.74.83-8.39.37-8.42-.23-.02-.12-.24.24-.49.57-.4.66-.9.68-3.81,0-1.84.11-3.28.22-3.21.18.12.29-.54.45-2.56.1-1.32.45-2.18.85-2.08.23.06.59-.25.81-.68.22-.43.6-.77.86-.76.26.01.39-.12.29-.28-.09-.17.35-.65.99-1.08ZM196.34,186.72c.34.28.47.59.28.7-.18.1-.6-.14-.94-.53-.69-.82-.27-.93.65-.17ZM176.78,190.07c.33,0,.69.16.81.37.12.21.12.48,0,.59-.12.11-.21.03-.2-.18,0-.21-.26-.47-.59-.57-.55-.17-.55-.19-.01-.2ZM122.17,192.12c-.28.41-.24.41-.88-.03-.41-.29-.36-.36.3-.34.45.01.71.18.58.37ZM149.54,189.53c-.56,0-1.26.29-1.55.65-.5.61-.53.61-.52,0,.01-.49-.16-.59-.74-.43-.58.16-.69.1-.46-.26.79-1.25,1.01-1.36,1.61-.77.58.57,1.91.45,1.57-.15-.1-.17.05-.22.33-.1.97.41.83,1.06-.23,1.06ZM152.51,189.42c-.82-.03-1.49-.21-1.48-.41.02-.45,1.79-.38,2.46.1.38.26.11.35-.98.31ZM156.15,189.57c-.07,0-.31-.25-.54-.55-.24-.31-.27-.54-.06-.53.2,0,.44.25.54.55.1.29.13.53.06.53ZM156.66,185.62c-.12.11-.2-.1-.17-.47.03-.41.12-.49.22-.2.09.26.07.56-.05.67ZM157.1,183.32c-.13.55-.95.79-.93.27,0-.22.16-.31.33-.19.17.12.4.05.51-.14.11-.2.15-.17.09.07ZM157.7,189.63c-.19,0-.34-.26-.33-.56.01-.3.18-.44.37-.32.19.13.34.38.33.56,0,.18-.17.33-.37.32ZM159.72,183.01c.19,0,.34.24.33.52-.01.28-.18.6-.38.71-.2.11-.35-.12-.33-.52.02-.4.19-.72.38-.71ZM160.08,195.11c-.23.13-.77-.09-1.21-.48-.67-.61-.7-.72-.19-.71.34,0,.61.16.6.34,0,.18.26.39.6.47.4.1.47.23.2.38ZM164.22,158.68c.19-.1.31.37.29,1.06-.03.69-.18,1.25-.35,1.24-.41-.02-.36-2.07.06-2.3ZM163.15,173.57c.09.26.07.56-.05.67-.12.11-.2-.1-.17-.47.03-.41.12-.49.22-.2ZM161.48,175.9c.12-1.01.49-1.19.76-.39.1.28-.06.69-.35.91-.44.33-.5.25-.41-.52ZM161.53,197.94c-.13.35-.22.35-.42-.02-.27-.49.04-1.01.39-.64.11.12.13.42.04.66ZM163.2,176.4c-.38.4-.81.73-.97.72-.15,0,0-.3.35-.65.49-.5.53-.69.18-.83-.36-.15-.36-.28,0-.64.38-.37.45-.34.43.17-.01.34.14.53.34.42.55-.31.42,0-.34.81ZM164.34,182.05c0,.18-.35.61-.76.95-.73.61-.74.61-.4-.21.34-.83,1.18-1.36,1.15-.74ZM165.45,175.62c-.32.11-.46.04-.33-.15.13-.19.09-.34-.07-.35-.16,0-.31-.34-.32-.75-.03-.73-.02-.73.63.08.36.45.65.85.65.9,0,.05-.25.17-.56.27ZM166.94,179.07c.2,0,.27.17.14.36-.13.19-.3.34-.39.34-.09,0-.15-.16-.14-.36,0-.19.18-.35.39-.34ZM166.24,201.86c-.12.11-.2-.1-.17-.47.03-.41.12-.49.22-.2.09.26.07.56-.05.67ZM166.72,193.56c-.59.65-.72.69-.71.21.02-.99.76-2.43,1.13-2.18.19.13.34.44.33.7-.01.26-.34.83-.74,1.27ZM169.09,182.56c-.86-.03-1.27-.48-1-1.1.17-.39.09-.55-.23-.48-.27.06-.36.04-.21-.03.15-.08.19-.28.09-.46-.1-.18.06-.22.35-.09.3.13.53.4.52.61,0,.21.21.65.49.98.44.53.44.6,0,.58ZM187.69,188.04c.21.08.23.33.04.6-.23.35-.38.36-.55.04-.28-.49,0-.85.51-.65ZM215.48,185.91c-.12-.2.03-.26.34-.13.6.26.7.51.2.49-.18,0-.42-.17-.53-.37ZM190.1,187.87c.11.12-.1.2-.47.17-.41-.03-.49-.12-.2-.22.26-.09.56-.07.67.05Z"/>
      </g>
    </g>
  </g>
</svg>